<?xml version="1.0" encoding="us-ascii" standalone="no"?><svg xmlns="http://www.w3.org/2000/svg" xmlns:xlink="http://www.w3.org/1999/xlink" contentStyleType="text/css" height="603px" preserveAspectRatio="none" style="width:3200px;height:603px;background:#FFFFFF;" version="1.1" viewBox="0 0 3200 603" width="3200px" zoomAndPan="magnify"><defs/><g><text fill="#000000" font-family="sans-serif" font-size="14" font-weight="bold" lengthAdjust="spacing" textLength="214" x="1486" y="22.9951">Mapa de Procesos: Syshub</text><!--cluster PROCESOS ESTRAT?GICOS--><g id="cluster_PROCESOS ESTRAT&#201;GICOS"><path d="M745.5,43.2969 L953.5,43.2969 A3.75,3.75 0 0 1 956,45.7969 L963,65.5938 L1221.5,65.5938 A2.5,2.5 0 0 1 1224,68.0938 L1224,170.7969 A2.5,2.5 0 0 1 1221.5,173.2969 L745.5,173.2969 A2.5,2.5 0 0 1 743,170.7969 L743,45.7969 A2.5,2.5 0 0 1 745.5,43.2969 " fill="none" style="stroke:#000000;stroke-width:1.5;"/><line style="stroke:#000000;stroke-width:1.5;" x1="743" x2="963" y1="65.5938" y2="65.5938"/><text fill="#000000" font-family="sans-serif" font-size="14" font-weight="bold" lengthAdjust="spacing" textLength="207" x="747" y="58.292">PROCESOS ESTRAT&#201;GICOS</text><text fill="#000000" font-family="sans-serif" font-size="14" font-style="italic" lengthAdjust="spacing" textLength="95" x="940" y="80.5889">&#171;Estrategico&#187;</text></g><!--cluster PROCESOS OPERATIVOS--><g id="cluster_PROCESOS OPERATIVOS"><polygon fill="#DAE8FC" points="16,232.2969,26,222.2969,3183,222.2969,3183,398.2969,3173,408.2969,16,408.2969,16,232.2969" style="stroke:#181818;stroke-width:1.0;"/><line style="stroke:#181818;stroke-width:1.0;" x1="3173" x2="3183" y1="232.2969" y2="222.2969"/><line style="stroke:#181818;stroke-width:1.0;" x1="16" x2="3173" y1="232.2969" y2="232.2969"/><line style="stroke:#181818;stroke-width:1.0;" x1="3173" x2="3173" y1="232.2969" y2="408.2969"/><text fill="#000000" font-family="sans-serif" font-size="14" font-weight="bold" lengthAdjust="spacing" textLength="188" x="1501.5" y="248.292">PROCESOS OPERATIVOS</text></g><!--cluster GESTI?N DE IDENTIDAD--><g id="cluster_GESTI&#211;N DE IDENTIDAD"><path d="M927.5,270.2969 L1108.5,270.2969 A3.75,3.75 0 0 1 1111,272.7969 L1118,292.5938 L1577.5,292.5938 A2.5,2.5 0 0 1 1580,295.0938 L1580,381.7969 A2.5,2.5 0 0 1 1577.5,384.2969 L927.5,384.2969 A2.5,2.5 0 0 1 925,381.7969 L925,272.7969 A2.5,2.5 0 0 1 927.5,270.2969 " fill="#C9D6DF" style="stroke:#000000;stroke-width:1.5;"/><line style="stroke:#000000;stroke-width:1.5;" x1="925" x2="1118" y1="292.5938" y2="292.5938"/><text fill="#000000" font-family="sans-serif" font-size="14" font-weight="bold" lengthAdjust="spacing" textLength="180" x="929" y="285.292">GESTI&#211;N DE IDENTIDAD</text></g><!--cluster REPOSITORIO DE PROYECTOS--><g id="cluster_REPOSITORIO DE PROYECTOS"><path d="M2311.5,270.2969 L2539.5,270.2969 A3.75,3.75 0 0 1 2542,272.7969 L2549,292.5938 L3156.5,292.5938 A2.5,2.5 0 0 1 3159,295.0938 L3159,381.7969 A2.5,2.5 0 0 1 3156.5,384.2969 L2311.5,384.2969 A2.5,2.5 0 0 1 2309,381.7969 L2309,272.7969 A2.5,2.5 0 0 1 2311.5,270.2969 " fill="#D1E8E2" style="stroke:#000000;stroke-width:1.5;"/><line style="stroke:#000000;stroke-width:1.5;" x1="2309" x2="2549" y1="292.5938" y2="292.5938"/><text fill="#000000" font-family="sans-serif" font-size="14" font-weight="bold" lengthAdjust="spacing" textLength="227" x="2313" y="285.292">REPOSITORIO DE PROYECTOS</text></g><!--cluster SECCI?N SOCIAL--><g id="cluster_SECCI&#211;N SOCIAL"><path d="M42.5,270.2969 L173.5,270.2969 A3.75,3.75 0 0 1 176,272.7969 L183,292.5938 L898.5,292.5938 A2.5,2.5 0 0 1 901,295.0938 L901,381.7969 A2.5,2.5 0 0 1 898.5,384.2969 L42.5,384.2969 A2.5,2.5 0 0 1 40,381.7969 L40,272.7969 A2.5,2.5 0 0 1 42.5,270.2969 " fill="#F9E2AF" style="stroke:#000000;stroke-width:1.5;"/><line style="stroke:#000000;stroke-width:1.5;" x1="40" x2="183" y1="292.5938" y2="292.5938"/><text fill="#000000" font-family="sans-serif" font-size="14" font-weight="bold" lengthAdjust="spacing" textLength="130" x="44" y="285.292">SECCI&#211;N SOCIAL</text></g><!--cluster PANEL DE ADMINISTRACI?N--><g id="cluster_PANEL DE ADMINISTRACI&#211;N"><path d="M1606.5,270.2969 L1820.5,270.2969 A3.75,3.75 0 0 1 1823,272.7969 L1830,292.5938 L2282.5,292.5938 A2.5,2.5 0 0 1 2285,295.0938 L2285,381.7969 A2.5,2.5 0 0 1 2282.5,384.2969 L1606.5,384.2969 A2.5,2.5 0 0 1 1604,381.7969 L1604,272.7969 A2.5,2.5 0 0 1 1606.5,270.2969 " fill="#E5D1FA" style="stroke:#000000;stroke-width:1.5;"/><line style="stroke:#000000;stroke-width:1.5;" x1="1604" x2="1830" y1="292.5938" y2="292.5938"/><text fill="#000000" font-family="sans-serif" font-size="14" font-weight="bold" lengthAdjust="spacing" textLength="213" x="1608" y="285.292">PANEL DE ADMINISTRACI&#211;N</text></g><!--cluster PROCESOS DE SOPORTE--><g id="cluster_PROCESOS DE SOPORTE"><path d="M1258.5,51.7969 L1446.5,51.7969 A3.75,3.75 0 0 1 1449,54.2969 L1456,74.0938 L1485.5,74.0938 A2.5,2.5 0 0 1 1488,76.5938 L1488,162.2969 A2.5,2.5 0 0 1 1485.5,164.7969 L1258.5,164.7969 A2.5,2.5 0 0 1 1256,162.2969 L1256,54.2969 A2.5,2.5 0 0 1 1258.5,51.7969 " fill="none" style="stroke:#000000;stroke-width:1.5;"/><line style="stroke:#000000;stroke-width:1.5;" x1="1256" x2="1456" y1="74.0938" y2="74.0938"/><text fill="#000000" font-family="sans-serif" font-size="14" font-weight="bold" lengthAdjust="spacing" textLength="187" x="1260" y="66.792">PROCESOS DE SOPORTE</text><text fill="#000000" font-family="sans-serif" font-size="14" font-style="italic" lengthAdjust="spacing" textLength="73" x="1339.5" y="89.0889">&#171;Soporte&#187;</text></g><!--cluster DB Oracle--><g id="cluster_DB Oracle"><path d="M1905,467.2969 C1905,457.2969 2181.5,457.2969 2181.5,457.2969 C2181.5,457.2969 2458,457.2969 2458,467.2969 L2458,576.2969 C2458,586.2969 2181.5,586.2969 2181.5,586.2969 C2181.5,586.2969 1905,586.2969 1905,576.2969 L1905,467.2969 " fill="#603070" style="stroke:#181818;stroke-width:1.0;"/><path d="M1905,467.2969 C1905,477.2969 2181.5,477.2969 2181.5,477.2969 C2181.5,477.2969 2458,477.2969 2458,467.2969 " fill="none" style="stroke:#181818;stroke-width:1.0;"/><text fill="#FFFFFF" font-family="sans-serif" font-size="14" font-weight="bold" lengthAdjust="spacing" textLength="77" x="2143" y="492.292">DB Oracle</text></g><!--entity PE1--><g id="elem_PE1"><rect fill="#F1F1F1" height="62.5938" rx="2.5" ry="2.5" style="stroke:#181818;stroke-width:0.5;" width="219" x="988.5" y="94.2969"/><rect fill="#F1F1F1" height="10" style="stroke:#181818;stroke-width:0.5;" width="15" x="1187.5" y="99.2969"/><rect fill="#F1F1F1" height="2" style="stroke:#181818;stroke-width:0.5;" width="4" x="1185.5" y="101.2969"/><rect fill="#F1F1F1" height="2" style="stroke:#181818;stroke-width:0.5;" width="4" x="1185.5" y="105.2969"/><text fill="#000000" font-family="sans-serif" font-size="14" lengthAdjust="spacing" textLength="179" x="1003.5" y="127.292">Definir Reglas del Sistema</text><text fill="#000000" font-family="sans-serif" font-size="14" lengthAdjust="spacing" textLength="105" x="1003.5" y="143.5889">(Administrador)</text></g><!--entity PE2--><g id="elem_PE2"><rect fill="#F1F1F1" height="62.5938" rx="2.5" ry="2.5" style="stroke:#181818;stroke-width:0.5;" width="194" x="759" y="94.2969"/><rect fill="#F1F1F1" height="10" style="stroke:#181818;stroke-width:0.5;" width="15" x="933" y="99.2969"/><rect fill="#F1F1F1" height="2" style="stroke:#181818;stroke-width:0.5;" width="4" x="931" y="101.2969"/><rect fill="#F1F1F1" height="2" style="stroke:#181818;stroke-width:0.5;" width="4" x="931" y="105.2969"/><text fill="#000000" font-family="sans-serif" font-size="14" lengthAdjust="spacing" textLength="154" x="774" y="127.292">Planificaci&#243;n Educativa</text><text fill="#000000" font-family="sans-serif" font-size="14" lengthAdjust="spacing" textLength="74" x="774" y="143.5889">(Auxiliares)</text></g><!--entity ID1--><g id="elem_ID1"><rect fill="#F1F1F1" height="62.5938" rx="2.5" ry="2.5" style="stroke:#181818;stroke-width:0.5;" width="130" x="1307" y="305.2969"/><rect fill="#F1F1F1" height="10" style="stroke:#181818;stroke-width:0.5;" width="15" x="1417" y="310.2969"/><rect fill="#F1F1F1" height="2" style="stroke:#181818;stroke-width:0.5;" width="4" x="1415" y="312.2969"/><rect fill="#F1F1F1" height="2" style="stroke:#181818;stroke-width:0.5;" width="4" x="1415" y="316.2969"/><text fill="#000000" font-family="sans-serif" font-size="14" lengthAdjust="spacing" textLength="74" x="1322" y="338.292">Ingreso de</text><text fill="#000000" font-family="sans-serif" font-size="14" lengthAdjust="spacing" textLength="90" x="1322" y="354.5889">Credenciales</text></g><g id="elem_ID2"><ellipse cx="1517.9264" cy="336.8441" fill="#F1F1F1" rx="45.4264" ry="26.0473" style="stroke:#181818;stroke-width:0.5;"/><text fill="#000000" font-family="sans-serif" font-size="14" lengthAdjust="spacing" textLength="29" x="1503.4264" y="331.5424">&#191;Rol</text><text fill="#000000" font-family="sans-serif" font-size="14" lengthAdjust="spacing" textLength="48" x="1493.9264" y="347.8393">V&#225;lido?</text></g><!--entity ID3--><g id="elem_ID3"><rect fill="#F1F1F1" height="62.5938" rx="2.5" ry="2.5" style="stroke:#181818;stroke-width:0.5;" width="158" x="941" y="305.2969"/><rect fill="#F1F1F1" height="10" style="stroke:#181818;stroke-width:0.5;" width="15" x="1079" y="310.2969"/><rect fill="#F1F1F1" height="2" style="stroke:#181818;stroke-width:0.5;" width="4" x="1077" y="312.2969"/><rect fill="#F1F1F1" height="2" style="stroke:#181818;stroke-width:0.5;" width="4" x="1077" y="316.2969"/><text fill="#000000" font-family="sans-serif" font-size="14" lengthAdjust="spacing" textLength="100" x="956" y="338.292">Verificaci&#243;n de</text><text fill="#000000" font-family="sans-serif" font-size="14" lengthAdjust="spacing" textLength="118" x="956" y="354.5889">Roles y Sesiones</text></g><!--entity ID4--><g id="elem_ID4"><rect fill="#F1F1F1" height="62.5938" rx="2.5" ry="2.5" style="stroke:#181818;stroke-width:0.5;" width="137" x="1134.5" y="305.2969"/><rect fill="#F1F1F1" height="10" style="stroke:#181818;stroke-width:0.5;" width="15" x="1251.5" y="310.2969"/><rect fill="#F1F1F1" height="2" style="stroke:#181818;stroke-width:0.5;" width="4" x="1249.5" y="312.2969"/><rect fill="#F1F1F1" height="2" style="stroke:#181818;stroke-width:0.5;" width="4" x="1249.5" y="316.2969"/><text fill="#000000" font-family="sans-serif" font-size="14" lengthAdjust="spacing" textLength="97" x="1149.5" y="338.292">Perfil Personal</text><text fill="#000000" font-family="sans-serif" font-size="14" lengthAdjust="spacing" textLength="79" x="1149.5" y="354.5889">Actualizado</text></g><!--entity RP1--><g id="elem_RP1"><rect fill="#F1F1F1" height="62.5938" rx="2.5" ry="2.5" style="stroke:#181818;stroke-width:0.5;" width="102" x="2325" y="305.2969"/><rect fill="#F1F1F1" height="10" style="stroke:#181818;stroke-width:0.5;" width="15" x="2407" y="310.2969"/><rect fill="#F1F1F1" height="2" style="stroke:#181818;stroke-width:0.5;" width="4" x="2405" y="312.2969"/><rect fill="#F1F1F1" height="2" style="stroke:#181818;stroke-width:0.5;" width="4" x="2405" y="316.2969"/><text fill="#000000" font-family="sans-serif" font-size="14" lengthAdjust="spacing" textLength="62" x="2340" y="338.292">Carga de</text><text fill="#000000" font-family="sans-serif" font-size="14" lengthAdjust="spacing" textLength="61" x="2340" y="354.5889">Proyecto</text></g><!--entity RP2--><g id="elem_RP2"><rect fill="#F1F1F1" height="62.5938" rx="2.5" ry="2.5" style="stroke:#181818;stroke-width:0.5;" width="125" x="2462.5" y="305.2969"/><rect fill="#F1F1F1" height="10" style="stroke:#181818;stroke-width:0.5;" width="15" x="2567.5" y="310.2969"/><rect fill="#F1F1F1" height="2" style="stroke:#181818;stroke-width:0.5;" width="4" x="2565.5" y="312.2969"/><rect fill="#F1F1F1" height="2" style="stroke:#181818;stroke-width:0.5;" width="4" x="2565.5" y="316.2969"/><text fill="#000000" font-family="sans-serif" font-size="14" lengthAdjust="spacing" textLength="85" x="2477.5" y="338.292">Indexaci&#243;n y</text><text fill="#000000" font-family="sans-serif" font-size="14" lengthAdjust="spacing" textLength="69" x="2477.5" y="354.5889">Validaci&#243;n</text></g><g id="elem_RP3"><ellipse cx="2691.968" cy="336.8441" fill="#F1F1F1" rx="69.468" ry="26.0473" style="stroke:#181818;stroke-width:0.5;"/><text fill="#000000" font-family="sans-serif" font-size="14" lengthAdjust="spacing" textLength="68" x="2657.968" y="331.5424">&#191;Proyecto</text><text fill="#000000" font-family="sans-serif" font-size="14" lengthAdjust="spacing" textLength="82" x="2650.968" y="347.8393">Destacado?</text></g><!--entity RP4--><g id="elem_RP4"><rect fill="#F1F1F1" height="62.5938" rx="2.5" ry="2.5" style="stroke:#181818;stroke-width:0.5;" width="115" x="2810.5" y="305.2969"/><rect fill="#F1F1F1" height="10" style="stroke:#181818;stroke-width:0.5;" width="15" x="2905.5" y="310.2969"/><rect fill="#F1F1F1" height="2" style="stroke:#181818;stroke-width:0.5;" width="4" x="2903.5" y="312.2969"/><rect fill="#F1F1F1" height="2" style="stroke:#181818;stroke-width:0.5;" width="4" x="2903.5" y="316.2969"/><text fill="#000000" font-family="sans-serif" font-size="14" lengthAdjust="spacing" textLength="66" x="2825.5" y="338.292">Curadur&#237;a</text><text fill="#000000" font-family="sans-serif" font-size="14" lengthAdjust="spacing" textLength="75" x="2825.5" y="354.5889">Acad&#233;mica</text></g><!--entity RP5--><g id="elem_RP5"><rect fill="#F1F1F1" height="62.5938" rx="2.5" ry="2.5" style="stroke:#181818;stroke-width:0.5;" width="182" x="2961" y="305.2969"/><rect fill="#F1F1F1" height="10" style="stroke:#181818;stroke-width:0.5;" width="15" x="3123" y="310.2969"/><rect fill="#F1F1F1" height="2" style="stroke:#181818;stroke-width:0.5;" width="4" x="3121" y="312.2969"/><rect fill="#F1F1F1" height="2" style="stroke:#181818;stroke-width:0.5;" width="4" x="3121" y="316.2969"/><text fill="#000000" font-family="sans-serif" font-size="14" lengthAdjust="spacing" textLength="142" x="2976" y="338.292">Galer&#237;a de Proyectos</text><text fill="#000000" font-family="sans-serif" font-size="14" lengthAdjust="spacing" textLength="66" x="2976" y="354.5889">Publicada</text></g><!--entity SS1--><g id="elem_SS1"><rect fill="#F1F1F1" height="62.5938" rx="2.5" ry="2.5" style="stroke:#181818;stroke-width:0.5;" width="164" x="56" y="305.2969"/><rect fill="#F1F1F1" height="10" style="stroke:#181818;stroke-width:0.5;" width="15" x="200" y="310.2969"/><rect fill="#F1F1F1" height="2" style="stroke:#181818;stroke-width:0.5;" width="4" x="198" y="312.2969"/><rect fill="#F1F1F1" height="2" style="stroke:#181818;stroke-width:0.5;" width="4" x="198" y="316.2969"/><text fill="#000000" font-family="sans-serif" font-size="14" lengthAdjust="spacing" textLength="124" x="71" y="338.292">Crear Publicaci&#243;n/</text><text fill="#000000" font-family="sans-serif" font-size="14" lengthAdjust="spacing" textLength="80" x="71" y="354.5889">Comentario</text></g><!--entity SS2--><g id="elem_SS2"><rect fill="#F1F1F1" height="62.5938" rx="2.5" ry="2.5" style="stroke:#181818;stroke-width:0.5;" width="202" x="255" y="305.2969"/><rect fill="#F1F1F1" height="10" style="stroke:#181818;stroke-width:0.5;" width="15" x="437" y="310.2969"/><rect fill="#F1F1F1" height="2" style="stroke:#181818;stroke-width:0.5;" width="4" x="435" y="312.2969"/><rect fill="#F1F1F1" height="2" style="stroke:#181818;stroke-width:0.5;" width="4" x="435" y="316.2969"/><text fill="#000000" font-family="sans-serif" font-size="14" lengthAdjust="spacing" textLength="162" x="270" y="338.292">Algoritmo de Valoraci&#243;n</text><text fill="#000000" font-family="sans-serif" font-size="14" lengthAdjust="spacing" textLength="120" x="270" y="354.5889">y Filtro de Calidad</text></g><!--entity SS3--><g id="elem_SS3"><rect fill="#F1F1F1" height="62.5938" rx="2.5" ry="2.5" style="stroke:#181818;stroke-width:0.5;" width="116" x="492" y="305.2969"/><rect fill="#F1F1F1" height="10" style="stroke:#181818;stroke-width:0.5;" width="15" x="588" y="310.2969"/><rect fill="#F1F1F1" height="2" style="stroke:#181818;stroke-width:0.5;" width="4" x="586" y="312.2969"/><rect fill="#F1F1F1" height="2" style="stroke:#181818;stroke-width:0.5;" width="4" x="586" y="316.2969"/><text fill="#000000" font-family="sans-serif" font-size="14" lengthAdjust="spacing" textLength="76" x="507" y="338.292">Gesti&#243;n de</text><text fill="#000000" font-family="sans-serif" font-size="14" lengthAdjust="spacing" textLength="33" x="507" y="354.5889">Hilos</text></g><g id="elem_SS4"><ellipse cx="763.9482" cy="336.7865" fill="#F1F1F1" rx="120.4482" ry="26.4896" style="stroke:#181818;stroke-width:0.5;"/><text fill="#000000" font-family="sans-serif" font-size="14" lengthAdjust="spacing" textLength="154" x="683.9482" y="332.3856">Ranking de Contenido</text><text fill="#000000" font-family="sans-serif" font-size="14" lengthAdjust="spacing" textLength="76" x="722.9482" y="348.6825">Acad&#233;mico</text></g><!--entity AD1--><g id="elem_AD1"><rect fill="#F1F1F1" height="62.5938" rx="2.5" ry="2.5" style="stroke:#181818;stroke-width:0.5;" width="121" x="1620.5" y="305.2969"/><rect fill="#F1F1F1" height="10" style="stroke:#181818;stroke-width:0.5;" width="15" x="1721.5" y="310.2969"/><rect fill="#F1F1F1" height="2" style="stroke:#181818;stroke-width:0.5;" width="4" x="1719.5" y="312.2969"/><rect fill="#F1F1F1" height="2" style="stroke:#181818;stroke-width:0.5;" width="4" x="1719.5" y="316.2969"/><text fill="#000000" font-family="sans-serif" font-size="14" lengthAdjust="spacing" textLength="78" x="1635.5" y="338.292">Reporte de</text><text fill="#000000" font-family="sans-serif" font-size="14" lengthAdjust="spacing" textLength="81" x="1635.5" y="354.5889">Moderaci&#243;n</text></g><g id="elem_AD2"><ellipse cx="1831.8259" cy="336.8441" fill="#F1F1F1" rx="55.3259" ry="26.0473" style="stroke:#181818;stroke-width:0.5;"/><text fill="#000000" font-family="sans-serif" font-size="14" lengthAdjust="spacing" textLength="62" x="1800.8259" y="331.5424">&#191;Sanci&#243;n</text><text fill="#000000" font-family="sans-serif" font-size="14" lengthAdjust="spacing" textLength="47" x="1808.3259" y="347.8393">V&#225;lida?</text></g><!--entity AD3--><g id="elem_AD3"><rect fill="#F1F1F1" height="62.5938" rx="2.5" ry="2.5" style="stroke:#181818;stroke-width:0.5;" width="103" x="1936.5" y="305.2969"/><rect fill="#F1F1F1" height="10" style="stroke:#181818;stroke-width:0.5;" width="15" x="2019.5" y="310.2969"/><rect fill="#F1F1F1" height="2" style="stroke:#181818;stroke-width:0.5;" width="4" x="2017.5" y="312.2969"/><rect fill="#F1F1F1" height="2" style="stroke:#181818;stroke-width:0.5;" width="4" x="2017.5" y="316.2969"/><text fill="#000000" font-family="sans-serif" font-size="14" lengthAdjust="spacing" textLength="63" x="1951.5" y="338.292">CRUD de</text><text fill="#000000" font-family="sans-serif" font-size="14" lengthAdjust="spacing" textLength="60" x="1951.5" y="354.5889">Usuarios</text></g><!--entity AD4--><g id="elem_AD4"><rect fill="#F1F1F1" height="62.5938" rx="2.5" ry="2.5" style="stroke:#181818;stroke-width:0.5;" width="194" x="2075" y="305.2969"/><rect fill="#F1F1F1" height="10" style="stroke:#181818;stroke-width:0.5;" width="15" x="2249" y="310.2969"/><rect fill="#F1F1F1" height="2" style="stroke:#181818;stroke-width:0.5;" width="4" x="2247" y="312.2969"/><rect fill="#F1F1F1" height="2" style="stroke:#181818;stroke-width:0.5;" width="4" x="2247" y="316.2969"/><text fill="#000000" font-family="sans-serif" font-size="14" lengthAdjust="spacing" textLength="154" x="2090" y="338.292">Clasificaci&#243;n Sist&#233;mica</text><text fill="#000000" font-family="sans-serif" font-size="14" lengthAdjust="spacing" textLength="67" x="2090" y="354.5889">(Pensum)</text></g><!--entity PS2--><g id="elem_PS2"><rect fill="#F1F1F1" height="46.2969" rx="2.5" ry="2.5" style="stroke:#181818;stroke-width:0.5;" width="200" x="1272" y="102.7969"/><rect fill="#F1F1F1" height="10" style="stroke:#181818;stroke-width:0.5;" width="15" x="1452" y="107.7969"/><rect fill="#F1F1F1" height="2" style="stroke:#181818;stroke-width:0.5;" width="4" x="1450" y="109.7969"/><rect fill="#F1F1F1" height="2" style="stroke:#181818;stroke-width:0.5;" width="4" x="1450" y="113.7969"/><text fill="#000000" font-family="sans-serif" font-size="14" lengthAdjust="spacing" textLength="160" x="1287" y="135.792">Seguridad de Identidad</text></g><!--entity DB_LOG--><g id="elem_DB_LOG"><rect fill="#F1F1F1" height="62.5938" rx="2.5" ry="2.5" style="stroke:#181818;stroke-width:0.5;" width="157" x="1921.5" y="507.2969"/><rect fill="#F1F1F1" height="10" style="stroke:#181818;stroke-width:0.5;" width="15" x="2058.5" y="512.2969"/><rect fill="#F1F1F1" height="2" style="stroke:#181818;stroke-width:0.5;" width="4" x="2056.5" y="514.2969"/><rect fill="#F1F1F1" height="2" style="stroke:#181818;stroke-width:0.5;" width="4" x="2056.5" y="518.2969"/><text fill="#000000" font-family="sans-serif" font-size="14" lengthAdjust="spacing" textLength="117" x="1936.5" y="540.292">Registro de Logs</text><text fill="#000000" font-family="sans-serif" font-size="14" lengthAdjust="spacing" textLength="106" x="1936.5" y="556.5889">y Auditor&#237;a (BD)</text></g><!--entity DB_PROY--><g id="elem_DB_PROY"><rect fill="#F1F1F1" height="62.5938" rx="2.5" ry="2.5" style="stroke:#181818;stroke-width:0.5;" width="177" x="2265.5" y="507.2969"/><rect fill="#F1F1F1" height="10" style="stroke:#181818;stroke-width:0.5;" width="15" x="2422.5" y="512.2969"/><rect fill="#F1F1F1" height="2" style="stroke:#181818;stroke-width:0.5;" width="4" x="2420.5" y="514.2969"/><rect fill="#F1F1F1" height="2" style="stroke:#181818;stroke-width:0.5;" width="4" x="2420.5" y="518.2969"/><text fill="#000000" font-family="sans-serif" font-size="14" lengthAdjust="spacing" textLength="137" x="2280.5" y="540.292">Almacenamiento de</text><text fill="#000000" font-family="sans-serif" font-size="14" lengthAdjust="spacing" textLength="104" x="2280.5" y="556.5889">Proyectos (BD)</text></g><!--entity DB_SIST--><g id="elem_DB_SIST"><rect fill="#F1F1F1" height="62.5938" rx="2.5" ry="2.5" style="stroke:#181818;stroke-width:0.5;" width="116" x="2114" y="507.2969"/><rect fill="#F1F1F1" height="10" style="stroke:#181818;stroke-width:0.5;" width="15" x="2210" y="512.2969"/><rect fill="#F1F1F1" height="2" style="stroke:#181818;stroke-width:0.5;" width="4" x="2208" y="514.2969"/><rect fill="#F1F1F1" height="2" style="stroke:#181818;stroke-width:0.5;" width="4" x="2208" y="518.2969"/><text fill="#000000" font-family="sans-serif" font-size="14" lengthAdjust="spacing" textLength="73" x="2129" y="540.292">Modelo de</text><text fill="#000000" font-family="sans-serif" font-size="14" lengthAdjust="spacing" textLength="76" x="2129" y="556.5889">Datos (BD)</text></g><!--link ID1 to ID2--><g id="link_ID1_ID2"><path d="M1437.02,336.7969 C1448.83,336.7969 1454.64,336.7969 1466.45,336.7969 " fill="none" id="ID1-to-ID2" style="stroke:#181818;stroke-width:1.0;"/><polygon fill="#181818" points="1472.45,336.7969,1463.45,332.7969,1467.45,336.7969,1463.45,340.7969,1472.45,336.7969" style="stroke:#181818;stroke-width:1.0;"/></g><!--link ID2 to ID3--><g id="link_ID2_ID3"><path d="M1512.91,310.7569 C1504.41,275.8269 1483.5,216.0669 1437.5,197.7969 C1406.21,185.3669 1165.79,185.3669 1134.5,197.7969 C1085.97,217.0669 1054.7587,265.0033 1037.0287,299.7233 " fill="none" id="ID2-to-ID3" style="stroke:#181818;stroke-width:1.0;"/><polygon fill="#181818" points="1034.3,305.0669,1041.9555,298.8706,1036.574,300.6139,1034.8307,295.2323,1034.3,305.0669" style="stroke:#181818;stroke-width:1.0;"/></g><!--link ID3 to ID4--><g id="link_ID3_ID4"><path d="M1099.35,336.7969 C1110.95,336.7969 1116.56,336.7969 1128.17,336.7969 " fill="none" id="ID3-to-ID4" style="stroke:#181818;stroke-width:1.0;"/><polygon fill="#181818" points="1134.17,336.7969,1125.17,332.7969,1129.17,336.7969,1125.17,340.7969,1134.17,336.7969" style="stroke:#181818;stroke-width:1.0;"/></g><!--link RP1 to RP2--><g id="link_RP1_RP2"><path d="M2427.22,336.7969 C2438.93,336.7969 2444.65,336.7969 2456.36,336.7969 " fill="none" id="RP1-to-RP2" style="stroke:#181818;stroke-width:1.0;"/><polygon fill="#181818" points="2462.36,336.7969,2453.36,332.7969,2457.36,336.7969,2453.36,340.7969,2462.36,336.7969" style="stroke:#181818;stroke-width:1.0;"/></g><!--link RP2 to RP3--><g id="link_RP2_RP3"><path d="M2587.62,336.7969 C2599.18,336.7969 2604.73,336.7969 2616.28,336.7969 " fill="none" id="RP2-to-RP3" style="stroke:#181818;stroke-width:1.0;"/><polygon fill="#181818" points="2622.28,336.7969,2613.28,332.7969,2617.28,336.7969,2613.28,340.7969,2622.28,336.7969" style="stroke:#181818;stroke-width:1.0;"/></g><!--link RP3 to RP4--><g id="link_RP3_RP4"><path d="M2761.56,336.7969 C2777.7,336.7969 2788.71,336.7969 2804.28,336.7969 " fill="none" id="RP3-to-RP4" style="stroke:#181818;stroke-width:1.0;"/><polygon fill="#181818" points="2810.28,336.7969,2801.28,332.7969,2805.28,336.7969,2801.28,340.7969,2810.28,336.7969" style="stroke:#181818;stroke-width:1.0;"/><text fill="#000000" font-family="sans-serif" font-size="13" lengthAdjust="spacing" textLength="12" x="2780" y="329.8638">S&#237;</text></g><!--link RP4 to RP5--><g id="link_RP4_RP5"><path d="M2925.86,336.7969 C2937.52,336.7969 2943.18,336.7969 2954.84,336.7969 " fill="none" id="RP4-to-RP5" style="stroke:#181818;stroke-width:1.0;"/><polygon fill="#181818" points="2960.84,336.7969,2951.84,332.7969,2955.84,336.7969,2951.84,340.7969,2960.84,336.7969" style="stroke:#181818;stroke-width:1.0;"/></g><!--link SS1 to SS2--><g id="link_SS1_SS2"><path d="M220.18,336.7969 C231.76,336.7969 237.34,336.7969 248.93,336.7969 " fill="none" id="SS1-to-SS2" style="stroke:#181818;stroke-width:1.0;"/><polygon fill="#181818" points="254.93,336.7969,245.93,332.7969,249.93,336.7969,245.93,340.7969,254.93,336.7969" style="stroke:#181818;stroke-width:1.0;"/></g><!--link SS2 to SS3--><g id="link_SS2_SS3"><path d="M457.17,336.7969 C468.77,336.7969 474.38,336.7969 485.98,336.7969 " fill="none" id="SS2-to-SS3" style="stroke:#181818;stroke-width:1.0;"/><polygon fill="#181818" points="491.98,336.7969,482.98,332.7969,486.98,336.7969,482.98,340.7969,491.98,336.7969" style="stroke:#181818;stroke-width:1.0;"/></g><!--link SS3 to SS4--><g id="link_SS3_SS4"><path d="M608.1,336.7969 C619.87,336.7969 625.65,336.7969 637.42,336.7969 " fill="none" id="SS3-to-SS4" style="stroke:#181818;stroke-width:1.0;"/><polygon fill="#181818" points="643.42,336.7969,634.42,332.7969,638.42,336.7969,634.42,340.7969,643.42,336.7969" style="stroke:#181818;stroke-width:1.0;"/></g><!--link AD1 to AD2--><g id="link_AD1_AD2"><path d="M1741.75,336.7969 C1753.27,336.7969 1758.79,336.7969 1770.3,336.7969 " fill="none" id="AD1-to-AD2" style="stroke:#181818;stroke-width:1.0;"/><polygon fill="#181818" points="1776.3,336.7969,1767.3,332.7969,1771.3,336.7969,1767.3,340.7969,1776.3,336.7969" style="stroke:#181818;stroke-width:1.0;"/></g><!--link AD2 to AD3--><g id="link_AD2_AD3"><path d="M1887.88,336.7969 C1903.7,336.7969 1914.85,336.7969 1930.41,336.7969 " fill="none" id="AD2-to-AD3" style="stroke:#181818;stroke-width:1.0;"/><polygon fill="#181818" points="1936.41,336.7969,1927.41,332.7969,1931.41,336.7969,1927.41,340.7969,1936.41,336.7969" style="stroke:#181818;stroke-width:1.0;"/><text fill="#000000" font-family="sans-serif" font-size="13" lengthAdjust="spacing" textLength="12" x="1906" y="329.8638">S&#237;</text></g><!--link AD3 to AD4--><g id="link_AD3_AD4"><path d="M2039.75,336.7969 C2051.46,336.7969 2057.17,336.7969 2068.88,336.7969 " fill="none" id="AD3-to-AD4" style="stroke:#181818;stroke-width:1.0;"/><polygon fill="#181818" points="2074.88,336.7969,2065.88,332.7969,2069.88,336.7969,2065.88,340.7969,2074.88,336.7969" style="stroke:#181818;stroke-width:1.0;"/></g><!--link PE1 to ID3--><g id="link_PE1_ID3"><path d="M1086.49,157.6369 C1071.7,197.2669 1048.2775,260.0255 1033.5275,299.5555 " fill="none" id="PE1-to-ID3" style="stroke:#181818;stroke-width:1.0;"/><polygon fill="#181818" points="1031.43,305.1769,1038.3239,298.1431,1033.178,300.4924,1030.8287,295.3464,1031.43,305.1769" style="stroke:#181818;stroke-width:1.0;"/><text fill="#000000" font-family="sans-serif" font-size="13" lengthAdjust="spacing" textLength="79" x="1073" y="202.3638">Define Roles</text></g><!--link PE2 to RP4--><g id="link_PE2_RP4"><path d="M883.13,157.4369 C901.18,175.4269 926.56,196.4969 954,206.2969 C977.87,214.8169 2756.42,202.7869 2779,214.2969 C2816.16,233.2369 2838.9964,270.3221 2852.8664,299.6721 " fill="none" id="PE2-to-RP4" style="stroke:#181818;stroke-width:1.0;"/><polygon fill="#181818" points="2855.43,305.0969,2855.2011,295.2507,2853.2937,300.5762,2847.9681,298.6688,2855.43,305.0969" style="stroke:#181818;stroke-width:1.0;"/><text fill="#000000" font-family="sans-serif" font-size="13" lengthAdjust="spacing" textLength="106" x="955" y="202.3638">Criterios de Gu&#237;a</text></g><!--link PE1 to AD4--><g id="link_PE1_AD4"><path d="M1141.97,157.3369 C1170.71,175.4069 1209.86,196.6169 1248,206.2969 C1291.56,217.3569 2015.8,196.3269 2057,214.2969 C2099.59,232.8769 2130.5367,270.708 2150.2467,300.208 " fill="none" id="PE1-to-AD4" style="stroke:#181818;stroke-width:1.0;"/><polygon fill="#181818" points="2153.58,305.1969,2151.906,295.4913,2150.8023,301.0394,2145.2541,299.9357,2153.58,305.1969" style="stroke:#181818;stroke-width:1.0;"/><text fill="#000000" font-family="sans-serif" font-size="13" lengthAdjust="spacing" textLength="114" x="1249" y="202.3638">Actualiza Pensum</text></g><!--link ID3 to DB_LOG--><g id="link_ID3_DB_LOG"><path d="M1049,368.3869 C1066.92,385.3469 1091.35,405.1969 1117,416.2969 C1261.31,478.7769 1727.086,518.1889 1915.376,531.9689 " fill="none" id="ID3-to-DB_LOG" style="stroke:#181818;stroke-width:1.0;"/><polygon fill="#181818" points="1921.36,532.4069,1912.676,527.7606,1916.3733,532.0419,1912.092,535.7393,1921.36,532.4069" style="stroke:#181818;stroke-width:1.0;"/><text fill="#000000" font-family="sans-serif" font-size="13" lengthAdjust="spacing" textLength="74" x="1186" y="437.3638">Genera Log</text></g><!--link RP5 to DB_PROY--><g id="link_RP5_DB_PROY"><path d="M3017.52,368.4369 C2997.16,384.9769 2970.12,404.3869 2943,416.2969 C2775.34,489.9169 2566.9522,519.1198 2448.5522,530.5598 " fill="none" id="RP5-to-DB_PROY" style="stroke:#181818;stroke-width:1.0;"/><polygon fill="#181818" points="2442.58,531.1369,2451.923,534.2528,2447.5568,530.656,2451.1536,526.2899,2442.58,531.1369" style="stroke:#181818;stroke-width:1.0;"/><text fill="#000000" font-family="sans-serif" font-size="13" lengthAdjust="spacing" textLength="77" x="2914" y="437.3638">Persistencia</text></g><!--link AD4 to DB_SIST--><g id="link_AD4_DB_SIST"><path d="M2172,368.6069 C2172,406.2969 2172,463.7169 2172,501.2769 " fill="none" id="AD4-to-DB_SIST" style="stroke:#181818;stroke-width:1.0;"/><polygon fill="#181818" points="2172,507.2769,2176,498.2769,2172,502.2769,2168,498.2769,2172,507.2769" style="stroke:#181818;stroke-width:1.0;"/><text fill="#000000" font-family="sans-serif" font-size="13" lengthAdjust="spacing" textLength="115" x="2173" y="437.3638">Mapea Relaciones</text></g><!--link SS4 to PE2--><g id="link_SS4_PE2"><path d="M759.93,310.2269 C756.33,279.5469 754.43,227.4669 775,189.2969 C781.66,176.9469 787.2476,170.0311 798.2576,161.1611 " fill="none" id="SS4-to-PE2" style="stroke:#181818;stroke-width:1.0;"/><polygon fill="#181818" points="802.93,157.3969,793.412,159.9283,799.0364,160.5337,798.4309,166.1581,802.93,157.3969" style="stroke:#181818;stroke-width:1.0;"/><text fill="#000000" font-family="sans-serif" font-size="13" lengthAdjust="spacing" textLength="116" x="776" y="202.3638">Retroalimentaci&#243;n</text></g><!--link PS2 to ID1--><g id="link_PS2_ID1"><path d="M1372,149.1669 C1372,186.7569 1372,256.6669 1372,299.1769 " fill="none" id="PS2-to-ID1" style="stroke:#181818;stroke-width:1.0;"/><polygon fill="#181818" points="1372,305.1769,1376,296.1769,1372,300.1769,1368,296.1769,1372,305.1769" style="stroke:#181818;stroke-width:1.0;"/><text fill="#000000" font-family="sans-serif" font-size="13" lengthAdjust="spacing" textLength="78" x="1373" y="202.3638">Encriptaci&#243;n</text></g><!--SRC=[TLRHRjis57tNLn39I_9Gr9RZhYcA38f4UmAII13T04Cz38p4g4HbqY2bhjxG3-Zplc2FU-ZJFc30_6Ex96MPzhoyH27FlRptyDp3jBnj6BgdQuegXd8bIwQbVeF8Hd_ede90V-HYJHLT8SNAbeeQqBy527vkQVcnLh8JLImRgTw-nRfLj6KrB-ND3JeFawlHzDf2PrAq9q6_VE0jEvqjMpC0yaysrsmqcywkJmE9N4lLCWCRut0KXiT7xW7kk2z-LnLjwHFL_zCKEdyrceo-6nsctETP0vpM39tbHHPZaX64oQA85jklypJEo1awRjYTyZvXprnmXGfMDrG3ymqYNBTiHPVY8gfMi6d2AgakVq80oF7O1UOD5VoPbxJasxy4mbLN6f9iMFUPDvmgfdSneIbHoCglByinr9S-ckBEamY_diLGb4q-D3E79jBjxmyemIXDyCCYJQ84uF5ryYgPzJtOSb9HmtaI6bYAMB6AYPBJXcbRG9gC1-J5FtyNibcAn-qV3Q_azvSE4EvJFJBbDMOIGW3JQ8C8qroA8Uba7vCpzSmR1B-q51JIHsNRqOR_2iprwAi1FNn0NUZ5pS7fyEsM9jxIn2sv35-EE2fmdf5qaHLfPcW2Vd_4ySAnEiQlSUZJ55DLKziJ3DW6viXLL-HZdygAVUwxtm1Hq4Rb_koneK_cBizI94otjAGxJelSuoVkG4ETsdwZXXfQRVzS0SDzlZqpx-TmPmRLMu3DhA7Oxga1VBMBcFwNIsZ1iEHN1zzkQU8jJTpI5G9dsNxpDgxSnlGaoGJ7iHKYoU8qkWDkPzSuZ0ua2BAZ2lMbMhvUWXRbYecMAkw89iGZEcfggNYxCgf5GBDKBcmfDcZ6crRPZTZoN_NXdaxdmFSWqHzu8tMFsRTxKL011bFRF60QJ83alHkGboxYX3QXKaE8Vo9ykwM9jpHnIwUrcKSF-CweCahkquVKE9Ab4VZ3qsGyYtp-2cRTqRPp3rwXFD55XnDCgEYPScDCdUGYVupZubrYSxtJdU5VzubyLOBbUQDkZCy94qmiPq9tgyi-w0H1aHjU_yp83I-SSQIko8rmD8pmISS6daYMPyK26xlUFnQzLHDMTyf8mTnc2WxN3hh8YNNOuGavIsvH1lmrx6mN3GPldDnAwaxMseWiwYhUIZjl5xU9wpMv_VakcmUzG5UqP8AkE1mc3sn37qGOqt4Xvk8Q1qteCOo00aoTy8YW5yxbW2Zx135aJHQsGhlb9ZI6yM3cxapLymuA7MA1Im0CDelSVGM1TKlOTtq0PCu4ICdq7C1qx_PCnR1f3DiyT-Qr24pAVjjK2jlmtmYZy3Ose11Z_048tK9CcMzW0mY5u-s8Mmr1RoJiUni30ejIyNM_-Iy0]--></g></svg>