<?xml version="1.0" encoding="us-ascii" standalone="no"?><svg xmlns="http://www.w3.org/2000/svg" xmlns:xlink="http://www.w3.org/1999/xlink" contentStyleType="text/css" height="711px" preserveAspectRatio="none" style="width:1425px;height:711px;background:#FFFFFF;" version="1.1" viewBox="0 0 1425 711" width="1425px" zoomAndPan="magnify"><defs/><g><!--class rol--><g id="elem_rol"><rect codeLine="12" fill="#FFFFFF" height="80.5938" id="rol" rx="2.5" ry="2.5" style="stroke:#2D4059;stroke-width:0.5;" width="90" x="106.5" y="180"/><ellipse cx="132.3" cy="196" fill="#ADD1B2" rx="11" ry="11" style="stroke:#181818;stroke-width:1.0;"/><path d="M128.6594,202.5 L128.6594,190.3594 L136.3156,190.3594 L136.3156,192.4844 L131.0344,192.4844 L131.0344,195.1406 L136.05,195.1406 L136.05,197.2656 L131.0344,197.2656 L131.0344,200.375 L136.3156,200.375 L136.3156,202.5 L128.6594,202.5 Z " fill="#000000"/><text fill="#000000" font-family="sans-serif" font-size="14" lengthAdjust="spacing" textLength="34" x="148.7" y="200.8467">roles</text><line style="stroke:#2D4059;stroke-width:0.5;" x1="107.5" x2="195.5" y1="212" y2="212"/><text fill="#000000" font-family="sans-serif" font-size="14" font-weight="bold" lengthAdjust="spacing" textLength="74" x="112.5" y="228.9951">PK: id_rol</text><line style="stroke:#2D4059;stroke-width:1.0;" x1="107.5" x2="195.5" y1="236.2969" y2="236.2969"/><text fill="#000000" font-family="sans-serif" font-size="14" lengthAdjust="spacing" textLength="78" x="112.5" y="253.292">nombre_rol</text></g><!--class usuario--><g id="elem_usuario"><rect codeLine="18" fill="#FFFFFF" height="162.0781" id="usuario" rx="2.5" ry="2.5" style="stroke:#2D4059;stroke-width:0.5;" width="124" x="89.5" y="337"/><ellipse cx="119.35" cy="353" fill="#ADD1B2" rx="11" ry="11" style="stroke:#181818;stroke-width:1.0;"/><path d="M115.7094,359.5 L115.7094,347.3594 L123.3656,347.3594 L123.3656,349.4844 L118.0844,349.4844 L118.0844,352.1406 L123.1,352.1406 L123.1,354.2656 L118.0844,354.2656 L118.0844,357.375 L123.3656,357.375 L123.3656,359.5 L115.7094,359.5 Z " fill="#000000"/><text fill="#000000" font-family="sans-serif" font-size="14" lengthAdjust="spacing" textLength="59" x="136.65" y="357.8467">usuarios</text><line style="stroke:#2D4059;stroke-width:0.5;" x1="90.5" x2="212.5" y1="369" y2="369"/><text fill="#000000" font-family="sans-serif" font-size="14" font-weight="bold" lengthAdjust="spacing" textLength="112" x="95.5" y="385.9951">PK: id_usuario</text><line style="stroke:#2D4059;stroke-width:1.0;" x1="90.5" x2="212.5" y1="393.2969" y2="393.2969"/><text fill="#000000" font-family="sans-serif" font-size="14" lengthAdjust="spacing" textLength="54" x="95.5" y="410.292">nombre</text><text fill="#000000" font-family="sans-serif" font-size="14" lengthAdjust="spacing" textLength="45" x="95.5" y="426.5889">correo</text><text fill="#000000" font-family="sans-serif" font-size="14" lengthAdjust="spacing" textLength="108" x="95.5" y="442.8857">password_hash</text><text fill="#000000" font-family="sans-serif" font-size="14" font-style="italic" lengthAdjust="spacing" textLength="62" x="95.5" y="459.1826">FK: id_rol</text><text fill="#000000" font-family="sans-serif" font-size="14" font-style="italic" lengthAdjust="spacing" textLength="92" x="95.5" y="475.4795">FK: id_estado</text><text fill="#000000" font-family="sans-serif" font-size="14" lengthAdjust="spacing" textLength="98" x="95.5" y="491.7764">fecha_registro</text></g><!--class sesion--><g id="elem_sesion"><rect codeLine="29" fill="#FFFFFF" height="145.7813" id="sesion" rx="2.5" ry="2.5" style="stroke:#2D4059;stroke-width:0.5;" width="117" x="7" y="559"/><ellipse cx="31.9" cy="575" fill="#ADD1B2" rx="11" ry="11" style="stroke:#181818;stroke-width:1.0;"/><path d="M28.2594,581.5 L28.2594,569.3594 L35.9156,569.3594 L35.9156,571.4844 L30.6344,571.4844 L30.6344,574.1406 L35.65,574.1406 L35.65,576.2656 L30.6344,576.2656 L30.6344,579.375 L35.9156,579.375 L35.9156,581.5 L28.2594,581.5 Z " fill="#000000"/><text fill="#000000" font-family="sans-serif" font-size="14" lengthAdjust="spacing" textLength="63" x="48.1" y="579.8467">sesiones</text><line style="stroke:#2D4059;stroke-width:0.5;" x1="8" x2="123" y1="591" y2="591"/><text fill="#000000" font-family="sans-serif" font-size="14" font-weight="bold" lengthAdjust="spacing" textLength="105" x="13" y="607.9951">PK: id_sesion</text><line style="stroke:#2D4059;stroke-width:1.0;" x1="8" x2="123" y1="615.2969" y2="615.2969"/><text fill="#000000" font-family="sans-serif" font-size="14" font-style="italic" lengthAdjust="spacing" textLength="95" x="13" y="632.292">FK: id_usuario</text><text fill="#000000" font-family="sans-serif" font-size="14" lengthAdjust="spacing" textLength="93" x="13" y="648.5889">token_sesion</text><text fill="#000000" font-family="sans-serif" font-size="14" lengthAdjust="spacing" textLength="80" x="13" y="664.8857">fecha_inicio</text><text fill="#000000" font-family="sans-serif" font-size="14" lengthAdjust="spacing" textLength="63" x="13" y="681.1826">ip_origen</text><text fill="#000000" font-family="sans-serif" font-size="14" lengthAdjust="spacing" textLength="73" x="13" y="697.4795">dispositivo</text></g><!--class pensum--><g id="elem_pensum"><rect codeLine="39" fill="#FFFFFF" height="96.8906" id="pensum" rx="2.5" ry="2.5" style="stroke:#2D4059;stroke-width:0.5;" width="128" x="632.5" y="7"/><ellipse cx="665.05" cy="23" fill="#ADD1B2" rx="11" ry="11" style="stroke:#181818;stroke-width:1.0;"/><path d="M661.4094,29.5 L661.4094,17.3594 L669.0656,17.3594 L669.0656,19.4844 L663.7844,19.4844 L663.7844,22.1406 L668.8,22.1406 L668.8,24.2656 L663.7844,24.2656 L663.7844,27.375 L669.0656,27.375 L669.0656,29.5 L661.4094,29.5 Z " fill="#000000"/><text fill="#000000" font-family="sans-serif" font-size="14" lengthAdjust="spacing" textLength="57" x="682.95" y="27.8467">pensum</text><line style="stroke:#2D4059;stroke-width:0.5;" x1="633.5" x2="759.5" y1="39" y2="39"/><text fill="#000000" font-family="sans-serif" font-size="14" font-weight="bold" lengthAdjust="spacing" textLength="116" x="638.5" y="55.9951">PK: id_pensum</text><line style="stroke:#2D4059;stroke-width:1.0;" x1="633.5" x2="759.5" y1="63.2969" y2="63.2969"/><text fill="#000000" font-family="sans-serif" font-size="14" lengthAdjust="spacing" textLength="111" x="638.5" y="80.292">codigo_pensum</text><text fill="#000000" font-family="sans-serif" font-size="14" lengthAdjust="spacing" textLength="89" x="638.5" y="96.5889">a&#241;o_vigencia</text></g><!--class curso--><g id="elem_curso"><rect codeLine="46" fill="#FFFFFF" height="113.1875" id="curso" rx="2.5" ry="2.5" style="stroke:#2D4059;stroke-width:0.5;" width="113" x="720" y="164"/><ellipse cx="750.3" cy="180" fill="#ADD1B2" rx="11" ry="11" style="stroke:#181818;stroke-width:1.0;"/><path d="M746.6594,186.5 L746.6594,174.3594 L754.3156,174.3594 L754.3156,176.4844 L749.0344,176.4844 L749.0344,179.1406 L754.05,179.1406 L754.05,181.2656 L749.0344,181.2656 L749.0344,184.375 L754.3156,184.375 L754.3156,186.5 L746.6594,186.5 Z " fill="#000000"/><text fill="#000000" font-family="sans-serif" font-size="14" lengthAdjust="spacing" textLength="47" x="767.7" y="184.8467">cursos</text><line style="stroke:#2D4059;stroke-width:0.5;" x1="721" x2="832" y1="196" y2="196"/><text fill="#000000" font-family="sans-serif" font-size="14" font-weight="bold" lengthAdjust="spacing" textLength="98" x="726" y="212.9951">PK: id_curso</text><line style="stroke:#2D4059;stroke-width:1.0;" x1="721" x2="832" y1="220.2969" y2="220.2969"/><text fill="#000000" font-family="sans-serif" font-size="14" lengthAdjust="spacing" textLength="100" x="726" y="237.292">nombre_curso</text><text fill="#000000" font-family="sans-serif" font-size="14" font-style="italic" lengthAdjust="spacing" textLength="75" x="726" y="253.5889">FK: id_area</text><text fill="#000000" font-family="sans-serif" font-size="14" font-style="italic" lengthAdjust="spacing" textLength="101" x="726" y="269.8857">FK: id_pensum</text></g><!--class area--><g id="elem_area"><rect codeLine="54" fill="#FFFFFF" height="80.5938" id="area" rx="2.5" ry="2.5" style="stroke:#2D4059;stroke-width:0.5;" width="119" x="796" y="15"/><ellipse cx="811" cy="31" fill="#ADD1B2" rx="11" ry="11" style="stroke:#181818;stroke-width:1.0;"/><path d="M807.3594,37.5 L807.3594,25.3594 L815.0156,25.3594 L815.0156,27.4844 L809.7344,27.4844 L809.7344,30.1406 L814.75,30.1406 L814.75,32.2656 L809.7344,32.2656 L809.7344,35.375 L815.0156,35.375 L815.0156,37.5 L807.3594,37.5 Z " fill="#000000"/><text fill="#000000" font-family="sans-serif" font-size="14" lengthAdjust="spacing" textLength="87" x="825" y="35.8467">area_tecnica</text><line style="stroke:#2D4059;stroke-width:0.5;" x1="797" x2="914" y1="47" y2="47"/><text fill="#000000" font-family="sans-serif" font-size="14" font-weight="bold" lengthAdjust="spacing" textLength="88" x="802" y="63.9951">PK: id_area</text><line style="stroke:#2D4059;stroke-width:1.0;" x1="797" x2="914" y1="71.2969" y2="71.2969"/><text fill="#000000" font-family="sans-serif" font-size="14" lengthAdjust="spacing" textLength="91" x="802" y="88.292">nombre_area</text></g><!--class pub--><g id="elem_pub"><rect codeLine="60" fill="#FFFFFF" height="145.7813" id="pub" rx="2.5" ry="2.5" style="stroke:#2D4059;stroke-width:0.5;" width="154" x="699.5" y="345"/><ellipse cx="726.65" cy="361" fill="#ADD1B2" rx="11" ry="11" style="stroke:#181818;stroke-width:1.0;"/><path d="M723.0094,367.5 L723.0094,355.3594 L730.6656,355.3594 L730.6656,357.4844 L725.3844,357.4844 L725.3844,360.1406 L730.4,360.1406 L730.4,362.2656 L725.3844,362.2656 L725.3844,365.375 L730.6656,365.375 L730.6656,367.5 L723.0094,367.5 Z " fill="#000000"/><text fill="#000000" font-family="sans-serif" font-size="14" lengthAdjust="spacing" textLength="95" x="743.35" y="365.8467">publicaciones</text><line style="stroke:#2D4059;stroke-width:0.5;" x1="700.5" x2="852.5" y1="377" y2="377"/><text fill="#000000" font-family="sans-serif" font-size="14" font-weight="bold" lengthAdjust="spacing" textLength="142" x="705.5" y="393.9951">PK: id_publicacion</text><line style="stroke:#2D4059;stroke-width:1.0;" x1="700.5" x2="852.5" y1="401.2969" y2="401.2969"/><text fill="#000000" font-family="sans-serif" font-size="14" lengthAdjust="spacing" textLength="34" x="705.5" y="418.292">titulo</text><text fill="#000000" font-family="sans-serif" font-size="14" font-style="italic" lengthAdjust="spacing" textLength="95" x="705.5" y="434.5889">FK: id_usuario</text><text fill="#000000" font-family="sans-serif" font-size="14" font-style="italic" lengthAdjust="spacing" textLength="83" x="705.5" y="450.8857">FK: id_curso</text><text fill="#000000" font-family="sans-serif" font-size="14" lengthAdjust="spacing" textLength="104" x="705.5" y="467.1826">fecha_creacion</text><text fill="#000000" font-family="sans-serif" font-size="14" lengthAdjust="spacing" textLength="103" x="705.5" y="483.4795">tipo_contenido</text></g><!--class proy--><g id="elem_proy"><rect codeLine="70" fill="#FFFFFF" height="129.4844" id="proy" rx="2.5" ry="2.5" style="stroke:#2D4059;stroke-width:0.5;" width="188" x="348.5" y="567.5"/><ellipse cx="403.75" cy="583.5" fill="#ADD1B2" rx="11" ry="11" style="stroke:#181818;stroke-width:1.0;"/><path d="M400.1094,590 L400.1094,577.8594 L407.7656,577.8594 L407.7656,579.9844 L402.4844,579.9844 L402.4844,582.6406 L407.5,582.6406 L407.5,584.7656 L402.4844,584.7656 L402.4844,587.875 L407.7656,587.875 L407.7656,590 L400.1094,590 Z " fill="#000000"/><text fill="#000000" font-family="sans-serif" font-size="14" lengthAdjust="spacing" textLength="69" x="424.25" y="588.3467">proyectos</text><line style="stroke:#2D4059;stroke-width:0.5;" x1="349.5" x2="535.5" y1="599.5" y2="599.5"/><text fill="#000000" font-family="sans-serif" font-size="14" font-weight="bold" lengthAdjust="spacing" textLength="27" x="354.5" y="616.4951">PK:</text><text fill="#000000" font-family="sans-serif" font-size="14" font-style="italic" font-weight="bold" lengthAdjust="spacing" textLength="144" x="386.5" y="616.4951">FK: id_publicacion</text><line style="stroke:#2D4059;stroke-width:1.0;" x1="349.5" x2="535.5" y1="623.7969" y2="623.7969"/><text fill="#000000" font-family="sans-serif" font-size="14" lengthAdjust="spacing" textLength="137" x="354.5" y="640.792">descripcion_tecnica</text><text fill="#000000" font-family="sans-serif" font-size="14" lengthAdjust="spacing" textLength="125" x="354.5" y="657.0889">stack_tecnologico</text><text fill="#000000" font-family="sans-serif" font-size="14" lengthAdjust="spacing" textLength="76" x="354.5" y="673.3857">url_adjunto</text><text fill="#000000" font-family="sans-serif" font-size="14" lengthAdjust="spacing" textLength="97" x="354.5" y="689.6826">es_destacado</text></g><!--class foro--><g id="elem_foro"><rect codeLine="79" fill="#FFFFFF" height="96.8906" id="foro" rx="2.5" ry="2.5" style="stroke:#2D4059;stroke-width:0.5;" width="188" x="571.5" y="583.5"/><ellipse cx="620.75" cy="599.5" fill="#ADD1B2" rx="11" ry="11" style="stroke:#181818;stroke-width:1.0;"/><path d="M617.1094,606 L617.1094,593.8594 L624.7656,593.8594 L624.7656,595.9844 L619.4844,595.9844 L619.4844,598.6406 L624.5,598.6406 L624.5,600.7656 L619.4844,600.7656 L619.4844,603.875 L624.7656,603.875 L624.7656,606 L617.1094,606 Z " fill="#000000"/><text fill="#000000" font-family="sans-serif" font-size="14" lengthAdjust="spacing" textLength="81" x="641.25" y="604.3467">posts_foros</text><line style="stroke:#2D4059;stroke-width:0.5;" x1="572.5" x2="758.5" y1="615.5" y2="615.5"/><text fill="#000000" font-family="sans-serif" font-size="14" font-weight="bold" lengthAdjust="spacing" textLength="27" x="577.5" y="632.4951">PK:</text><text fill="#000000" font-family="sans-serif" font-size="14" font-style="italic" font-weight="bold" lengthAdjust="spacing" textLength="144" x="609.5" y="632.4951">FK: id_publicacion</text><line style="stroke:#2D4059;stroke-width:1.0;" x1="572.5" x2="758.5" y1="639.7969" y2="639.7969"/><text fill="#000000" font-family="sans-serif" font-size="14" lengthAdjust="spacing" textLength="144" x="577.5" y="656.792">es_pregunta_tecnica</text><text fill="#000000" font-family="sans-serif" font-size="14" lengthAdjust="spacing" textLength="127" x="577.5" y="673.0889">estado_resolucion</text></g><!--class blog--><g id="elem_blog"><rect codeLine="86" fill="#FFFFFF" height="96.8906" id="blog" rx="2.5" ry="2.5" style="stroke:#2D4059;stroke-width:0.5;" width="188" x="794.5" y="583.5"/><ellipse cx="833.35" cy="599.5" fill="#ADD1B2" rx="11" ry="11" style="stroke:#181818;stroke-width:1.0;"/><path d="M829.7094,606 L829.7094,593.8594 L837.3656,593.8594 L837.3656,595.9844 L832.0844,595.9844 L832.0844,598.6406 L837.1,598.6406 L837.1,600.7656 L832.0844,600.7656 L832.0844,603.875 L837.3656,603.875 L837.3656,606 L829.7094,606 Z " fill="#000000"/><text fill="#000000" font-family="sans-serif" font-size="14" lengthAdjust="spacing" textLength="103" x="852.65" y="604.3467">articulos_blogs</text><line style="stroke:#2D4059;stroke-width:0.5;" x1="795.5" x2="981.5" y1="615.5" y2="615.5"/><text fill="#000000" font-family="sans-serif" font-size="14" font-weight="bold" lengthAdjust="spacing" textLength="27" x="800.5" y="632.4951">PK:</text><text fill="#000000" font-family="sans-serif" font-size="14" font-style="italic" font-weight="bold" lengthAdjust="spacing" textLength="144" x="832.5" y="632.4951">FK: id_publicacion</text><line style="stroke:#2D4059;stroke-width:1.0;" x1="795.5" x2="981.5" y1="639.7969" y2="639.7969"/><text fill="#000000" font-family="sans-serif" font-size="14" lengthAdjust="spacing" textLength="112" x="800.5" y="656.792">cuerpo_extenso</text><text fill="#000000" font-family="sans-serif" font-size="14" lengthAdjust="spacing" textLength="135" x="800.5" y="673.0889">url_imagen_portada</text></g><!--class com--><g id="elem_com"><rect codeLine="93" fill="#FFFFFF" height="129.4844" id="com" rx="2.5" ry="2.5" style="stroke:#2D4059;stroke-width:0.5;" width="154" x="159.5" y="567.5"/><ellipse cx="190.7" cy="583.5" fill="#ADD1B2" rx="11" ry="11" style="stroke:#181818;stroke-width:1.0;"/><path d="M187.0594,590 L187.0594,577.8594 L194.7156,577.8594 L194.7156,579.9844 L189.4344,579.9844 L189.4344,582.6406 L194.45,582.6406 L194.45,584.7656 L189.4344,584.7656 L189.4344,587.875 L194.7156,587.875 L194.7156,590 L187.0594,590 Z " fill="#000000"/><text fill="#000000" font-family="sans-serif" font-size="14" lengthAdjust="spacing" textLength="86" x="208.3" y="588.3467">comentarios</text><line style="stroke:#2D4059;stroke-width:0.5;" x1="160.5" x2="312.5" y1="599.5" y2="599.5"/><text fill="#000000" font-family="sans-serif" font-size="14" font-weight="bold" lengthAdjust="spacing" textLength="142" x="165.5" y="616.4951">PK: id_comentario</text><line style="stroke:#2D4059;stroke-width:1.0;" x1="160.5" x2="312.5" y1="623.7969" y2="623.7969"/><text fill="#000000" font-family="sans-serif" font-size="14" font-style="italic" lengthAdjust="spacing" textLength="123" x="165.5" y="640.792">FK: id_publicacion</text><text fill="#000000" font-family="sans-serif" font-size="14" font-style="italic" lengthAdjust="spacing" textLength="95" x="165.5" y="657.0889">FK: id_usuario</text><text fill="#000000" font-family="sans-serif" font-size="14" lengthAdjust="spacing" textLength="70" x="165.5" y="673.3857">contenido</text><text fill="#000000" font-family="sans-serif" font-size="14" lengthAdjust="spacing" textLength="133" x="165.5" y="689.6826">puntuacion_calidad</text></g><!--class tag--><g id="elem_tag"><rect codeLine="102" fill="#FFFFFF" height="80.5938" id="tag" rx="2.5" ry="2.5" style="stroke:#2D4059;stroke-width:0.5;" width="130" x="1259.5" y="377.5"/><ellipse cx="1289.35" cy="393.5" fill="#ADD1B2" rx="11" ry="11" style="stroke:#181818;stroke-width:1.0;"/><path d="M1285.7094,400 L1285.7094,387.8594 L1293.3656,387.8594 L1293.3656,389.9844 L1288.0844,389.9844 L1288.0844,392.6406 L1293.1,392.6406 L1293.1,394.7656 L1288.0844,394.7656 L1288.0844,397.875 L1293.3656,397.875 L1293.3656,400 L1285.7094,400 Z " fill="#000000"/><text fill="#000000" font-family="sans-serif" font-size="14" lengthAdjust="spacing" textLength="65" x="1306.65" y="398.3467">etiquetas</text><line style="stroke:#2D4059;stroke-width:0.5;" x1="1260.5" x2="1388.5" y1="409.5" y2="409.5"/><text fill="#000000" font-family="sans-serif" font-size="14" font-weight="bold" lengthAdjust="spacing" textLength="118" x="1265.5" y="426.4951">PK: id_etiqueta</text><line style="stroke:#2D4059;stroke-width:1.0;" x1="1260.5" x2="1388.5" y1="433.7969" y2="433.7969"/><text fill="#000000" font-family="sans-serif" font-size="14" lengthAdjust="spacing" textLength="83" x="1265.5" y="450.792">nombre_tag</text></g><!--class p_tag--><g id="elem_p_tag"><rect codeLine="108" fill="#FFFFFF" height="80.5938" id="p_tag" rx="2.5" ry="2.5" style="stroke:#2D4059;stroke-width:0.5;" width="188" x="1230.5" y="591.5"/><ellipse cx="1259.9" cy="607.5" fill="#ADD1B2" rx="11" ry="11" style="stroke:#181818;stroke-width:1.0;"/><path d="M1256.2594,614 L1256.2594,601.8594 L1263.9156,601.8594 L1263.9156,603.9844 L1258.6344,603.9844 L1258.6344,606.6406 L1263.65,606.6406 L1263.65,608.7656 L1258.6344,608.7656 L1258.6344,611.875 L1263.9156,611.875 L1263.9156,614 L1256.2594,614 Z " fill="#000000"/><text fill="#000000" font-family="sans-serif" font-size="14" lengthAdjust="spacing" textLength="124" x="1277.1" y="612.3467">tag_publicaciones</text><line style="stroke:#2D4059;stroke-width:0.5;" x1="1231.5" x2="1417.5" y1="623.5" y2="623.5"/><text fill="#000000" font-family="sans-serif" font-size="14" font-weight="bold" lengthAdjust="spacing" textLength="27" x="1236.5" y="640.4951">PK:</text><text fill="#000000" font-family="sans-serif" font-size="14" font-style="italic" font-weight="bold" lengthAdjust="spacing" textLength="144" x="1268.5" y="640.4951">FK: id_publicacion</text><text fill="#000000" font-family="sans-serif" font-size="14" font-weight="bold" lengthAdjust="spacing" textLength="27" x="1236.5" y="656.792">PK:</text><text fill="#000000" font-family="sans-serif" font-size="14" font-style="italic" font-weight="bold" lengthAdjust="spacing" textLength="122" x="1268.5" y="656.792">FK: id_etiqueta</text><line style="stroke:#2D4059;stroke-width:0.5;" x1="1231.5" x2="1417.5" y1="664.0938" y2="664.0938"/></g><!--class rep--><g id="elem_rep"><rect codeLine="113" fill="#FFFFFF" height="145.7813" id="rep" rx="2.5" ry="2.5" style="stroke:#2D4059;stroke-width:0.5;" width="177" x="1018" y="559"/><ellipse cx="1072.75" cy="575" fill="#ADD1B2" rx="11" ry="11" style="stroke:#181818;stroke-width:1.0;"/><path d="M1069.1094,581.5 L1069.1094,569.3594 L1076.7656,569.3594 L1076.7656,571.4844 L1071.4844,571.4844 L1071.4844,574.1406 L1076.5,574.1406 L1076.5,576.2656 L1071.4844,576.2656 L1071.4844,579.375 L1076.7656,579.375 L1076.7656,581.5 L1069.1094,581.5 Z " fill="#000000"/><text fill="#000000" font-family="sans-serif" font-size="14" lengthAdjust="spacing" textLength="59" x="1093.25" y="579.8467">reportes</text><line style="stroke:#2D4059;stroke-width:0.5;" x1="1019" x2="1194" y1="591" y2="591"/><text fill="#000000" font-family="sans-serif" font-size="14" font-weight="bold" lengthAdjust="spacing" textLength="113" x="1024" y="607.9951">PK: id_reporte</text><line style="stroke:#2D4059;stroke-width:1.0;" x1="1019" x2="1194" y1="615.2969" y2="615.2969"/><text fill="#000000" font-family="sans-serif" font-size="14" font-style="italic" lengthAdjust="spacing" textLength="123" x="1024" y="632.292">FK: id_publicacion</text><text fill="#000000" font-family="sans-serif" font-size="14" font-style="italic" lengthAdjust="spacing" textLength="152" x="1024" y="648.5889">FK: id_usuario_reporta</text><text fill="#000000" font-family="sans-serif" font-size="14" lengthAdjust="spacing" textLength="117" x="1024" y="664.8857">motivo_denuncia</text><text fill="#000000" font-family="sans-serif" font-size="14" lengthAdjust="spacing" textLength="165" x="1024" y="681.1826">id_moderador_asignado</text><text fill="#000000" font-family="sans-serif" font-size="14" lengthAdjust="spacing" textLength="127" x="1024" y="697.4795">estado_resolucion</text></g><!--link usuario to sesion--><g id="link_usuario_sesion"><path codeLine="123" d="M106.75,507.21 C106.75,526.84 106.75,531.7 106.75,550.93 " fill="none" id="usuario-sesion" style="stroke:#2D4059;stroke-width:1.0;"/><line style="stroke:#2D4059;stroke-width:1.0;" x1="102.75" x2="110.75" y1="503.21" y2="503.21"/><line style="stroke:#2D4059;stroke-width:1.0;" x1="102.75" x2="110.75" y1="506.21" y2="506.21"/><line style="stroke:#2D4059;stroke-width:1.0;" x1="106.75" x2="106.75" y1="507.21" y2="499.21"/><line style="stroke:#2D4059;stroke-width:1.0;" x1="106.75" x2="114.75" y1="550.93" y2="558.93"/><line style="stroke:#2D4059;stroke-width:1.0;" x1="106.75" x2="98.75" y1="550.93" y2="558.93"/><line style="stroke:#2D4059;stroke-width:1.0;" x1="106.75" x2="106.75" y1="550.93" y2="558.93"/></g><!--link rol to usuario--><g id="link_rol_usuario"><path codeLine="124" d="M151.5,269.42 C151.5,291.23 151.5,302.84 151.5,328.79 " fill="none" id="rol-usuario" style="stroke:#2D4059;stroke-width:1.0;"/><line style="stroke:#2D4059;stroke-width:1.0;" x1="147.5" x2="155.5" y1="265.42" y2="265.42"/><line style="stroke:#2D4059;stroke-width:1.0;" x1="147.5" x2="155.5" y1="268.42" y2="268.42"/><line style="stroke:#2D4059;stroke-width:1.0;" x1="151.5" x2="151.5" y1="269.42" y2="261.42"/><line style="stroke:#2D4059;stroke-width:1.0;" x1="151.5" x2="159.5" y1="328.79" y2="336.79"/><line style="stroke:#2D4059;stroke-width:1.0;" x1="151.5" x2="143.5" y1="328.79" y2="336.79"/><line style="stroke:#2D4059;stroke-width:1.0;" x1="151.5" x2="151.5" y1="328.79" y2="336.79"/></g><!--link pensum to curso--><g id="link_pensum_curso"><path codeLine="125" d="M740.25,112.11 C740.25,130.84 740.25,136.39 740.25,155.81 " fill="none" id="pensum-curso" style="stroke:#2D4059;stroke-width:1.0;"/><line style="stroke:#2D4059;stroke-width:1.0;" x1="736.25" x2="744.25" y1="108.11" y2="108.11"/><line style="stroke:#2D4059;stroke-width:1.0;" x1="736.25" x2="744.25" y1="111.11" y2="111.11"/><line style="stroke:#2D4059;stroke-width:1.0;" x1="740.25" x2="740.25" y1="112.11" y2="104.11"/><line style="stroke:#2D4059;stroke-width:1.0;" x1="740.25" x2="748.25" y1="155.81" y2="163.81"/><line style="stroke:#2D4059;stroke-width:1.0;" x1="740.25" x2="732.25" y1="155.81" y2="163.81"/><line style="stroke:#2D4059;stroke-width:1.0;" x1="740.25" x2="740.25" y1="155.81" y2="163.81"/></g><!--link area to curso--><g id="link_area_curso"><path codeLine="126" d="M814.5,104.29 C814.5,124.61 814.5,133.53 814.5,155.69 " fill="none" id="area-curso" style="stroke:#2D4059;stroke-width:1.0;"/><line style="stroke:#2D4059;stroke-width:1.0;" x1="810.5" x2="818.5" y1="100.29" y2="100.29"/><line style="stroke:#2D4059;stroke-width:1.0;" x1="810.5" x2="818.5" y1="103.29" y2="103.29"/><line style="stroke:#2D4059;stroke-width:1.0;" x1="814.5" x2="814.5" y1="104.29" y2="96.29"/><line style="stroke:#2D4059;stroke-width:1.0;" x1="814.5" x2="822.5" y1="155.69" y2="163.69"/><line style="stroke:#2D4059;stroke-width:1.0;" x1="814.5" x2="806.5" y1="155.69" y2="163.69"/><line style="stroke:#2D4059;stroke-width:1.0;" x1="814.5" x2="814.5" y1="155.69" y2="163.69"/></g><!--link curso to pub--><g id="link_curso_pub"><path codeLine="127" d="M776.5,285.1 C776.5,306.18 776.5,314.43 776.5,336.79 " fill="none" id="curso-pub" style="stroke:#2D4059;stroke-width:1.0;"/><line style="stroke:#2D4059;stroke-width:1.0;" x1="772.5" x2="780.5" y1="281.1" y2="281.1"/><line style="stroke:#2D4059;stroke-width:1.0;" x1="772.5" x2="780.5" y1="284.1" y2="284.1"/><line style="stroke:#2D4059;stroke-width:1.0;" x1="776.5" x2="776.5" y1="285.1" y2="277.1"/><line style="stroke:#2D4059;stroke-width:1.0;" x1="776.5" x2="784.5" y1="336.79" y2="344.79"/><line style="stroke:#2D4059;stroke-width:1.0;" x1="776.5" x2="768.5" y1="336.79" y2="344.79"/><line style="stroke:#2D4059;stroke-width:1.0;" x1="776.5" x2="776.5" y1="336.79" y2="344.79"/></g><!--link pub to proy--><g id="link_pub_proy"><path codeLine="129" d="M719.5,499.45 C719.5,540.71 719.5,576 719.5,576 C719.5,576 624.97,576 544.67,576 " fill="none" id="pub-proy" style="stroke:#2D4059;stroke-width:1.0;"/><line style="stroke:#2D4059;stroke-width:1.0;" x1="715.5" x2="723.5" y1="495.45" y2="495.45"/><line style="stroke:#2D4059;stroke-width:1.0;" x1="715.5" x2="723.5" y1="498.45" y2="498.45"/><line style="stroke:#2D4059;stroke-width:1.0;" x1="719.5" x2="719.5" y1="499.45" y2="491.45"/><line style="stroke:#2D4059;stroke-width:1.0;" x1="540.67" x2="540.67" y1="580" y2="572"/><line style="stroke:#2D4059;stroke-width:1.0;" x1="543.67" x2="543.67" y1="580" y2="572"/><line style="stroke:#2D4059;stroke-width:1.0;" x1="544.67" x2="536.67" y1="576" y2="576"/></g><!--link pub to foro--><g id="link_pub_foro"><path codeLine="130" d="M739.5,499.05 C739.5,529.56 739.5,548.18 739.5,575.48 " fill="none" id="pub-foro" style="stroke:#2D4059;stroke-width:1.0;"/><line style="stroke:#2D4059;stroke-width:1.0;" x1="735.5" x2="743.5" y1="495.05" y2="495.05"/><line style="stroke:#2D4059;stroke-width:1.0;" x1="735.5" x2="743.5" y1="498.05" y2="498.05"/><line style="stroke:#2D4059;stroke-width:1.0;" x1="739.5" x2="739.5" y1="499.05" y2="491.05"/><line style="stroke:#2D4059;stroke-width:1.0;" x1="743.5" x2="735.5" y1="579.48" y2="579.48"/><line style="stroke:#2D4059;stroke-width:1.0;" x1="743.5" x2="735.5" y1="576.48" y2="576.48"/><line style="stroke:#2D4059;stroke-width:1.0;" x1="739.5" x2="739.5" y1="575.48" y2="583.48"/></g><!--link pub to blog--><g id="link_pub_blog"><path codeLine="131" d="M814.17,499.05 C814.17,529.56 814.17,548.18 814.17,575.48 " fill="none" id="pub-blog" style="stroke:#2D4059;stroke-width:1.0;"/><line style="stroke:#2D4059;stroke-width:1.0;" x1="810.17" x2="818.17" y1="495.05" y2="495.05"/><line style="stroke:#2D4059;stroke-width:1.0;" x1="810.17" x2="818.17" y1="498.05" y2="498.05"/><line style="stroke:#2D4059;stroke-width:1.0;" x1="814.17" x2="814.17" y1="499.05" y2="491.05"/><line style="stroke:#2D4059;stroke-width:1.0;" x1="818.17" x2="810.17" y1="579.48" y2="579.48"/><line style="stroke:#2D4059;stroke-width:1.0;" x1="818.17" x2="810.17" y1="576.48" y2="576.48"/><line style="stroke:#2D4059;stroke-width:1.0;" x1="814.17" x2="814.17" y1="575.48" y2="583.48"/></g><!--link pub to com--><g id="link_pub_com"><path codeLine="133" d="M691.42,418 C548.21,418 263.5,418 263.5,418 C263.5,418 263.5,496.23 263.5,559.21 " fill="none" id="pub-com" style="stroke:#2D4059;stroke-width:1.0;"/><line style="stroke:#2D4059;stroke-width:1.0;" x1="695.42" x2="695.42" y1="414" y2="422"/><line style="stroke:#2D4059;stroke-width:1.0;" x1="692.42" x2="692.42" y1="414" y2="422"/><line style="stroke:#2D4059;stroke-width:1.0;" x1="691.42" x2="699.42" y1="418" y2="418"/><line style="stroke:#2D4059;stroke-width:1.0;" x1="263.5" x2="271.5" y1="559.21" y2="567.21"/><line style="stroke:#2D4059;stroke-width:1.0;" x1="263.5" x2="255.5" y1="559.21" y2="567.21"/><line style="stroke:#2D4059;stroke-width:1.0;" x1="263.5" x2="263.5" y1="559.21" y2="567.21"/></g><!--link pub to p_tag--><g id="link_pub_p_tag"><path codeLine="134" d="M861.6,475 C994.59,475 1245,475 1245,475 C1245,475 1245,536.64 1245,583.16 " fill="none" id="pub-p_tag" style="stroke:#2D4059;stroke-width:1.0;"/><line style="stroke:#2D4059;stroke-width:1.0;" x1="857.6" x2="857.6" y1="479" y2="471"/><line style="stroke:#2D4059;stroke-width:1.0;" x1="860.6" x2="860.6" y1="479" y2="471"/><line style="stroke:#2D4059;stroke-width:1.0;" x1="861.6" x2="853.6" y1="475" y2="475"/><line style="stroke:#2D4059;stroke-width:1.0;" x1="1245" x2="1253" y1="583.16" y2="591.16"/><line style="stroke:#2D4059;stroke-width:1.0;" x1="1245" x2="1237" y1="583.16" y2="591.16"/><line style="stroke:#2D4059;stroke-width:1.0;" x1="1245" x2="1245" y1="583.16" y2="591.16"/></g><!--link tag to p_tag--><g id="link_tag_p_tag"><path codeLine="135" d="M1324.5,466.5 C1324.5,504.55 1324.5,545.19 1324.5,583.3 " fill="none" id="tag-p_tag" style="stroke:#2D4059;stroke-width:1.0;"/><line style="stroke:#2D4059;stroke-width:1.0;" x1="1320.5" x2="1328.5" y1="462.5" y2="462.5"/><line style="stroke:#2D4059;stroke-width:1.0;" x1="1320.5" x2="1328.5" y1="465.5" y2="465.5"/><line style="stroke:#2D4059;stroke-width:1.0;" x1="1324.5" x2="1324.5" y1="466.5" y2="458.5"/><line style="stroke:#2D4059;stroke-width:1.0;" x1="1324.5" x2="1332.5" y1="583.3" y2="591.3"/><line style="stroke:#2D4059;stroke-width:1.0;" x1="1324.5" x2="1316.5" y1="583.3" y2="591.3"/><line style="stroke:#2D4059;stroke-width:1.0;" x1="1324.5" x2="1324.5" y1="583.3" y2="591.3"/></g><!--link pub to rep--><g id="link_pub_rep"><path codeLine="136" d="M833.83,499.43 C833.83,535.78 833.83,564 833.83,564 C833.83,564 930.36,564 1009.97,564 " fill="none" id="pub-rep" style="stroke:#2D4059;stroke-width:1.0;"/><line style="stroke:#2D4059;stroke-width:1.0;" x1="829.83" x2="837.83" y1="495.43" y2="495.43"/><line style="stroke:#2D4059;stroke-width:1.0;" x1="829.83" x2="837.83" y1="498.43" y2="498.43"/><line style="stroke:#2D4059;stroke-width:1.0;" x1="833.83" x2="833.83" y1="499.43" y2="491.43"/><line style="stroke:#2D4059;stroke-width:1.0;" x1="1009.97" x2="1017.97" y1="564" y2="556"/><line style="stroke:#2D4059;stroke-width:1.0;" x1="1009.97" x2="1017.97" y1="564" y2="572"/><line style="stroke:#2D4059;stroke-width:1.0;" x1="1009.97" x2="1017.97" y1="564" y2="564"/></g><!--link usuario to com--><g id="link_usuario_com"><path codeLine="137" d="M186.5,507.21 C186.5,529.79 186.5,538.01 186.5,559.49 " fill="none" id="usuario-com" style="stroke:#2D4059;stroke-width:1.0;"/><line style="stroke:#2D4059;stroke-width:1.0;" x1="182.5" x2="190.5" y1="503.21" y2="503.21"/><line style="stroke:#2D4059;stroke-width:1.0;" x1="182.5" x2="190.5" y1="506.21" y2="506.21"/><line style="stroke:#2D4059;stroke-width:1.0;" x1="186.5" x2="186.5" y1="507.21" y2="499.21"/><line style="stroke:#2D4059;stroke-width:1.0;" x1="186.5" x2="194.5" y1="559.49" y2="567.49"/><line style="stroke:#2D4059;stroke-width:1.0;" x1="186.5" x2="178.5" y1="559.49" y2="567.49"/><line style="stroke:#2D4059;stroke-width:1.0;" x1="186.5" x2="186.5" y1="559.49" y2="567.49"/></g><!--SRC=[bLMvRXin4EttAzPE4nT2WY0f4XW2Sa2D6tSf2OeShyPQSJOyVC3AH-KRycCP7lAIjWmuQiHvGywyEVT4mnKQw2yltjwTzUVhvUN5b_xk_DrwsPqKrIghSBdAAbnsdTkYcQILktxaA_v-Wfwitr2bKADqhd_eUlvzasexM0f6VwUHRFzpWnwIvgkrT9l1Dnz-V7p_wND-G5Q3RV7VNGV6ex_lJosDu4vxwNe-5HyS0Mh1ybaI5ulqPsYtjX3X-drmGLgaRA88ZPc27J6LZegi1Kh7YQEyPRPY8zqc8QkMI1R1UQcBlIjG6oai3EYyfPgN0uTaIcXPQ6Xbg66rUixNqnPCkLivH8CACscS15aS8AirkeaSUhnfo4nWNDWbAldOKCbGGqMHne6A9Y7oxnyIDz6HGbdRLi6walvqR4mdv5WLawAAMbgGTP8Fd2f7yOhme3XscTn5eF4s6scTHRn9HrYFR4JD1MAaJSbyep78xyD8BrLhzJJcN2t5xjMXW1ud4egC1uEwBPAbUr2-v39ACwNLCrODBGrEMPoYuf2XX7Edgcr2UFm6L9bviAEG-ZeOdsLmGiUcLl898NBUYIkoXL8ylPeI6vruBjY9R2ZbwU6HSJI6b9Mcn1uL9zY9DVFDNkFfrLvL0ClvXJjEhvkZnPtanXKJBpQfs-wb7H_d3S9osy2F-YEZ-gnBZlJ4NEgqOZWV8JqGIewefQx9WCTV0RpCLBmS6Ye7xR4Evxkr8HR5aIONZScNKlceUdJOZA65cCR3peQftTbP-T-vAWzBR3kA2uoRqeIqRTAUqs97_27Xvh52EXoCrFHoHns-1FlzOl5GzcyNlp0PAEgkRCCCvfsKjaeDvAsM4OwYw-AoYE9-dwQqbkE8r79itld1GsolIae5wM9HQddMSrAU11BV_mC0]--></g></svg>